<svg xmlns="http://www.w3.org/2000/svg" viewBox="0 0 1000 1000" fill="none" stroke="currentColor" stroke-linecap="round" stroke-linejoin="round">
  <g stroke-width="16">
    <path d="M145 720 C250 520 360 465 500 560 C630 655 700 790 700 900 C700 960 680 1030 585 980 C505 940 460 860 520 790 C590 705 710 740 790 810 C870 880 910 940 860 1000"/>
    <path d="M145 720 L210 730"/>
    <path d="M210 730 L275 740"/>
    <path d="M275 740 L335 735"/>
    <path d="M500 790 L560 790"/>
    <path d="M700 900 L760 915"/>
    <path d="M790 810 L810 870"/>
    <path d="M860 1000 L860 960"/>
  </g>
  <g fill="currentColor">
    <circle cx="145" cy="720" r="15"/>
    <line x1="133" y1="720" x2="157" y2="720" stroke="#000" stroke-width="6"/>
    <line x1="145" y1="708" x2="145" y2="732" stroke="#000" stroke-width="6"/>
  </g>
</svg>
